<svg width="910" height="267" viewBox="0 0 910 267" fill="none" xmlns="http://www.w3.org/2000/svg">
<path d="M143.3 113.35C144.35 110.95 144.65 108.85 144.65 106C144.65 96.55 144.65 34.45 144.65 20.2C144.65 16.15 144.05 9.39999 143.45 6.55H158.15C157.7 10.15 157.1 15.85 157.1 20.05C157.1 34.3 157.1 97.6 157.1 105.25C185.9 97.9 220.55 78.25 239.3 54.1L246.05 64.6C226.55 88.75 195.65 107.2 158.15 118.15C156.65 118.6 154.25 119.35 151.85 120.7L143.3 113.35ZM343.85 0.69999C343.25 4.74999 342.95 9.1 343.1 13.15C343.25 29.8 344.3 82.15 344.45 110.2C344.6 118.15 339.8 122.35 330.8 122.35C323.15 122.35 314.3 121.9 306.8 121.45L305.75 109C312.95 110.2 321.35 110.8 327.05 110.8C331.25 110.8 332.6 108.85 332.6 104.8C332.6 83.35 332 29.8 331.25 13.15C330.95 7.44999 330.65 3.84999 330.05 0.69999H343.85ZM263.3 26.95C267.65 27.4 272.6 27.7 277.1 27.7C285.05 27.7 359.3 27.7 366.95 27.7C370.85 27.7 376.7 27.25 379.7 26.8V39.55C376.1 39.4 371 39.1 367.25 39.1C360.65 39.1 284.15 39.1 277.4 39.1C272.3 39.1 268.1 39.4 263.3 39.7V26.95ZM257.9 97C289.55 81.4 317.3 55.15 328.4 36.85H334.4L334.55 46.9C323.15 64.75 295.25 91.45 266.45 106.75L257.9 97ZM452.75 16.9C452.75 12.25 452.15 5.05 451.25 1.89999H466.25C465.8 5.05 465.2 12.55 465.2 16.9C465.2 25.45 465.2 39.4 465.2 48.55C465.2 81.7 454.25 106.15 423.65 123.7L411.95 115.15C440.45 101.65 452.75 79.45 452.75 48.55C452.75 39.55 452.75 25.45 452.75 16.9ZM394.55 36.25C397.55 36.7 403.1 37 408.5 37C415.85 37 497.9 37 505.1 37C510.2 37 515.9 36.7 518.15 36.4V49.15C515.9 49 509.6 48.85 504.95 48.85C497.9 48.85 415.85 48.85 408.8 48.85C403.1 48.85 397.7 49 394.55 49.3V36.25ZM593.45 114.85C594.05 112.6 594.5 109.45 594.5 106.45C594.5 99.55 594.5 26.05 594.5 16.6C594.5 10.9 593.75 6.69999 593.75 5.49999H607.55C607.4 6.69999 606.8 11.05 606.8 16.75C606.8 26.05 606.8 98.65 606.8 103.15C620.75 96.85 639.2 83.2 650.6 66.25L657.8 76.6C644.75 94.15 624.05 109.45 606.65 118.15C604.1 119.35 602.6 120.7 601.4 121.45L593.45 114.85ZM524.75 114.25C537.5 105.25 546.35 91.9 550.85 77.35C555.35 63.55 555.35 33.7 555.35 16.9C555.35 12.55 555.05 9.25 554.3 6.09999H568.1C567.95 7.75 567.35 12.4 567.35 16.75C567.35 33.4 566.9 65.65 562.85 80.65C558.35 96.7 548.75 111.25 536.15 121.75L524.75 114.25ZM748.4 10.15C752.15 15.55 758.6 25.6 762.05 32.8L753.5 36.7C749.75 28.75 744.95 20.5 740 13.75L748.4 10.15ZM766.4 2.64999C770.45 7.9 777.05 17.8 780.5 24.85L772.1 29.05C768.2 21.1 763.25 13.15 758.3 6.55L766.4 2.64999ZM695.75 106.75C695.75 98.5 695.75 32.2 695.75 19.6C695.75 15.25 695.3 8.65 694.55 3.99999H709.25C708.8 8.5 708.2 15.1 708.2 19.6C708.2 43 708.35 99.7 708.35 106.75C708.35 111.55 708.65 119.65 709.25 124.6H694.7C695.45 119.8 695.75 112.45 695.75 106.75ZM705.5 43.3C725.45 49 755.6 60.55 772.25 68.8L767 81.4C749.9 72.25 721.85 61.6 705.5 56.5V43.3ZM258.5 129C257.9 133.65 257.75 137.1 257.75 140.25C257.75 143.7 257.75 154.95 257.75 160.2H245C245 154.35 245 143.7 245 140.25C245 137.1 244.85 133.65 244.25 129H258.5ZM309.65 158.1C308.9 160.2 308 164.25 307.55 167.1C305.45 179.1 301.1 197.85 292.7 212.1C281.6 231.75 260.9 247.05 233.45 254.55L223.7 243.45C228.65 242.55 234.35 241.05 239.15 239.25C254.3 234.3 270.65 223.2 279.95 208.95C288.05 196.2 292.7 178.05 294.05 165.3H210.35C210.35 171.45 210.35 187.5 210.35 192.15C210.35 194.7 210.5 198.75 210.8 201H197.75C198.2 198.45 198.35 194.4 198.35 191.4C198.35 186.6 198.35 170.25 198.35 165C198.35 161.85 198.35 156.75 197.75 153.6C202.1 153.9 206.6 154.2 211.85 154.2H291.35C296.9 154.2 299.6 153.6 301.55 153L309.65 158.1ZM410.15 157.35C409.55 160.5 409.55 164.1 409.55 167.55C409.85 180.75 410.6 226.35 410.9 248.1C410.9 254.55 406.1 258.3 399.5 258.3C393.65 258.3 383.75 257.85 377.9 257.55L377.15 246.45C383.3 247.35 391.1 247.95 395.45 247.95C398.3 247.95 399.65 246.3 399.65 243.45C399.65 225.75 398.9 180.75 398.3 167.55C398.3 164.55 398 160.65 397.4 157.35H410.15ZM342.5 178.95C346.1 179.55 350.15 179.7 353.75 179.7C360.05 179.7 425.15 179.7 431.3 179.7C434.45 179.7 439.25 179.4 441.35 178.95V190.8C438.8 190.65 434.6 190.5 431.75 190.5C426.35 190.5 359.3 190.5 353.9 190.5C350 190.5 346.1 190.65 342.5 190.95V178.95ZM338.6 236.4C362.75 224.85 387.35 202.8 396.05 187.05L402.2 187.2L402.35 196.2C394.4 210.9 369.8 233.55 346.85 245.55L338.6 236.4ZM519.95 162.75C522.5 168.75 529.85 188.55 531.65 195L520.55 199.05C518.9 192.15 512 173.1 508.85 166.5L519.95 162.75ZM574.25 171.15C573.2 174.15 572.45 176.55 571.85 178.5C567.95 195 561.35 211.2 550.7 224.7C536.75 242.25 518.45 253.95 501.8 260.25L491.9 250.2C509.15 245.1 528.35 233.7 540.65 218.4C551.3 205.35 558.95 186.15 561.35 166.95L574.25 171.15ZM485 170.25C488 176.55 495.95 196.2 498.65 204.15L487.4 208.35C485 200.55 476.9 179.7 473.9 174.45L485 170.25ZM607.4 144.75C618.65 145.35 641.45 144.75 657.8 142.5C671.45 140.7 689 137.1 696.35 133.8L704.3 144.3C701 145.2 698.15 145.95 695.9 146.55C687.2 148.65 673.25 151.35 661.25 153C644.45 155.25 623.75 155.7 610.4 156L607.4 144.75ZM615.8 247.05C641.3 235.05 654.05 216.3 654.05 185.4C654.05 185.4 654.05 171.9 654.05 151.35L666.05 149.7C666.05 161.4 666.05 185.1 666.05 185.1C666.05 217.05 655.55 239.1 627.5 255.15L615.8 247.05ZM595.7 180.45C599 180.75 604.25 181.2 608.9 181.2C618.5 181.2 698.3 181.2 707.6 181.2C710.75 181.2 716.3 180.9 719.45 180.6V192.9C716.15 192.6 711.5 192.45 707.75 192.45C698.75 192.45 618.35 192.45 609.05 192.45C604.25 192.45 599.3 192.6 595.7 192.9V180.45Z" fill="#297BCD" fill-opacity="0.5"/>
<path d="M227.44 142.58L268.3 189.38V191H234.46L201.88 150.32V191H173.8V64.46H201.88V135.56L233.74 94.52H266.32V96.14L227.44 142.58ZM321.335 193.7C305.495 193.7 292.955 189.14 283.715 180.02C274.475 170.9 269.855 158.48 269.855 142.76C269.855 127.76 274.415 115.58 283.535 106.22C292.655 96.74 304.655 92 319.535 92C333.695 92 344.675 96.62 352.475 105.86C360.275 115.1 364.175 127.22 364.175 142.22C364.175 146.3 363.935 149.48 363.455 151.76H298.835C299.435 157.52 302.255 161.9 307.295 164.9C312.335 167.78 318.275 169.22 325.115 169.22C338.315 169.22 349.655 166.28 359.135 160.4H360.755V185.78C349.475 191.06 336.335 193.7 321.335 193.7ZM298.655 132.32H336.815C336.815 126.8 335.255 122.54 332.135 119.54C329.135 116.54 324.935 115.04 319.535 115.04C313.535 115.04 308.675 116.48 304.955 119.36C301.355 122.24 299.255 126.56 298.655 132.32ZM435.565 142.58L476.425 189.38V191H442.585L410.005 150.32V191H381.925V64.46H410.005V135.56L441.865 94.52H474.445V96.14L435.565 142.58ZM542.264 142.58L583.124 189.38V191H549.284L516.704 150.32V191H488.624V64.46H516.704V135.56L548.564 94.52H581.144V96.14L542.264 142.58ZM621.65 193.7C612.17 193.7 604.43 191 598.43 185.6C592.43 180.2 589.43 172.94 589.43 163.82C589.43 153.14 592.97 145.04 600.05 139.52C607.25 134 616.73 131.24 628.49 131.24C637.01 131.24 644.75 132.56 651.71 135.2V132.68C651.71 122.24 645.17 117.02 632.09 117.02C619.73 117.02 608.39 119.72 598.07 125.12H596.45V99.92C608.21 94.64 621.59 92 636.59 92C651.35 92 662.27 95.36 669.35 102.08C676.43 108.68 679.97 119.18 679.97 133.58V191H651.71V179.66C649.07 183.98 644.93 187.4 639.29 189.92C633.77 192.44 627.89 193.7 621.65 193.7ZM629.03 171.56C635.15 171.56 640.43 169.88 644.87 166.52C649.43 163.04 651.71 158.54 651.71 153.02V152.48C646.31 150.8 640.13 149.96 633.17 149.96C621.89 149.96 616.25 153.8 616.25 161.48C616.25 164.84 617.45 167.36 619.85 169.04C622.25 170.72 625.31 171.56 629.03 171.56ZM726.536 84.44C723.416 87.44 719.456 88.94 714.656 88.94C709.856 88.94 705.836 87.44 702.596 84.44C699.476 81.44 697.916 77.6 697.916 72.92C697.916 68.24 699.476 64.4 702.596 61.4C705.836 58.4 709.856 56.9 714.656 56.9C719.456 56.9 723.416 58.4 726.536 61.4C729.776 64.4 731.396 68.24 731.396 72.92C731.396 77.6 729.776 81.44 726.536 84.44ZM700.616 191V94.52H728.696V191H700.616Z" fill="#297BCD"/>
</svg>
